<?xml version="1.0" encoding="iso-8859-1"?>
<!-- Generator: Adobe Illustrator 19.0.0, SVG Export Plug-In . SVG Version: 6.00 Build 0)  -->
<svg version="1.1" id="Layer_1" xmlns="http://www.w3.org/2000/svg" xmlns:xlink="http://www.w3.org/1999/xlink" x="0px" y="0px"
	 viewBox="0 0 512.001 512.001" style="enable-background:new 0 0 512.001 512.001;" xml:space="preserve">
<path style="fill:#FF964B;" d="M158.89,17.655h-26.483c-4.875,0-8.828,3.953-8.828,8.828v79.448h44.138V26.483
	C167.718,21.608,163.766,17.655,158.89,17.655z"/>
<path style="fill:#E1824B;" d="M158.89,17.655h-17.655v88.276h26.483V26.483C167.718,21.608,163.766,17.655,158.89,17.655z"/>
<path style="fill:#FF964B;" d="M353.097,17.655h26.483c4.875,0,8.828,3.953,8.828,8.828v79.448H344.27V26.483
	C344.27,21.608,348.222,17.655,353.097,17.655z"/>
<g>
	<path style="fill:#E1824B;" d="M353.097,17.655h17.655v88.276H344.27V26.483C344.27,21.608,348.222,17.655,353.097,17.655z"/>
	<path style="fill:#E1824B;" d="M317.787,79.448h-17.655v-35.31c0-9.737-7.918-17.655-17.655-17.655h-52.966
		c-9.737,0-17.655,7.918-17.655,17.655v35.31h-17.655V35.31c0-19.47,15.84-35.31,35.31-35.31h52.966
		c19.47,0,35.31,15.84,35.31,35.31V79.448z"/>
</g>
<path style="fill:#FFA54B;" d="M101.644,202.114l-7.511,5.007c-4.513,3.009-9.617,4.448-14.664,4.448
	c-8.561,0-16.957-4.138-22.06-11.794c-8.113-12.172-4.823-28.612,7.345-36.724l45.966-30.644L101.644,202.114z"/>
<path style="fill:#E1824B;" d="M79.469,220.396c-11.849,0-22.84-5.879-29.405-15.724c-10.797-16.203-6.406-38.168,9.793-48.966
	l45.965-30.643c2.888-1.918,6.625-1.97,9.556-0.151c2.94,1.827,4.543,5.203,4.095,8.633l-9.074,69.707
	c-0.332,2.53-1.737,4.793-3.862,6.207l-7.513,5.004C93.21,218.344,86.447,220.396,79.469,220.396z M99.46,150.526l-29.811,19.871
	c-8.099,5.401-10.293,16.384-4.897,24.483c5.207,7.81,16.608,10.134,24.483,4.897l4.172-2.781L99.46,150.526z M101.645,202.115
	h0.086H101.645z"/>
<path style="fill:#FFA54B;" d="M410.357,202.114l7.511,5.007c4.513,3.009,9.617,4.448,14.664,4.448
	c8.561,0,16.957-4.138,22.06-11.794c8.113-12.172,4.823-28.612-7.345-36.724l-45.966-30.644L410.357,202.114z"/>
<path style="fill:#E1824B;" d="M412.977,214.465l-7.513-5.004c-2.125-1.414-3.53-3.677-3.862-6.207l-9.074-69.707
	c-0.448-3.431,1.155-6.806,4.095-8.633c2.931-1.818,6.668-1.768,9.556,0.151l45.965,30.643c16.199,10.797,20.59,32.762,9.793,48.966
	c-6.564,9.845-17.556,15.724-29.405,15.724C425.554,220.396,418.791,218.344,412.977,214.465z M418.594,196.995l4.172,2.781
	c7.875,5.237,19.276,2.914,24.483-4.897c5.397-8.099,3.202-19.082-4.897-24.483l-29.811-19.871L418.594,196.995z M410.27,202.115
	h0.086H410.27z"/>
<path style="fill:#FFC855;" d="M334.538,70.621H177.449c-40.659,0-74.755,30.697-79.011,71.132L70.615,406.069h370.759
	l-27.822-264.317C409.294,101.318,375.197,70.621,334.538,70.621z"/>
<path style="fill:#FFAF4B;" d="M257.097,238.345h-2.207c-111.523,0-201.931,90.408-201.931,201.931v18.759
	c0,29.252,23.713,52.966,52.966,52.966h300.138c29.252,0,52.966-23.713,52.966-52.966v-18.759
	C459.028,328.753,368.621,238.345,257.097,238.345z"/>
<path style="fill:#FFA54B;" d="M105.925,459.034v-17.655c0-103.15,76.941-188.274,176.552-201.258
	c-8.674-1.131-17.501-1.775-26.483-1.775c-112.134,0-203.034,90.901-203.034,203.035v17.655c0,29.252,23.713,52.966,52.966,52.966
	h52.966C129.638,512,105.925,488.287,105.925,459.034z"/>
<path style="fill:#E1824B;" d="M264.822,397.241v-44.138c0-4.875-3.953-8.828-8.828-8.828c-4.875,0-8.828,3.953-8.828,8.828v44.138
	c0,63.281-51.478,114.759-114.759,114.759h65.793c26.23-15.146,46.835-38.996,57.793-67.616
	c10.957,28.62,31.563,52.47,57.793,67.616h65.793C316.301,512,264.822,460.522,264.822,397.241z"/>
<circle style="fill:#784B46;" cx="255.99" cy="326.621" r="35.31"/>
<path style="fill:#6E4141;" d="M238.339,326.621c0-16.435,11.279-30.124,26.483-34.062c-2.837-0.735-5.761-1.248-8.828-1.248
	c-19.501,0-35.31,15.809-35.31,35.31s15.809,35.31,35.31,35.31c3.066,0,5.991-0.513,8.828-1.248
	C249.618,356.745,238.339,343.055,238.339,326.621z"/>
<circle style="fill:#A0786E;" cx="264.817" cy="317.793" r="8.828"/>
<g>
	<path style="fill:#6E4141;" d="M189.787,211.862L189.787,211.862c-7.313,0-13.241-5.929-13.241-13.241v-17.655
		c0-7.313,5.929-13.241,13.241-13.241l0,0c7.313,0,13.241,5.929,13.241,13.241v17.655
		C203.028,205.933,197.101,211.862,189.787,211.862z"/>
	<path style="fill:#6E4141;" d="M322.201,211.862L322.201,211.862c-7.313,0-13.241-5.929-13.241-13.241v-17.655
		c0-7.313,5.929-13.241,13.241-13.241l0,0c7.313,0,13.241,5.929,13.241,13.241v17.655
		C335.442,205.933,329.514,211.862,322.201,211.862z"/>
</g>
<path style="fill:#FF964B;" d="M113.775,249.021l11-104.497c2.837-26.956,25.569-47.421,52.674-47.421h157.089
	c27.105,0,49.837,20.465,52.674,47.421l11,104.497c0.946,8.985,8.523,15.807,17.558,15.807h10.734l-12.954-123.075
	c-4.256-40.435-38.354-71.132-79.012-71.132H177.449c-40.659,0-74.755,30.697-79.012,71.132L85.482,264.828h10.734
	C105.252,264.828,112.829,258.006,113.775,249.021z"/>
<g>
</g>
<g>
</g>
<g>
</g>
<g>
</g>
<g>
</g>
<g>
</g>
<g>
</g>
<g>
</g>
<g>
</g>
<g>
</g>
<g>
</g>
<g>
</g>
<g>
</g>
<g>
</g>
<g>
</g>
</svg>
